<?xml version="1.0" encoding="utf-8"?>
<!-- Generator: Adobe Illustrator 23.0.3, SVG Export Plug-In . SVG Version: 6.00 Build 0)  -->
<svg version="1.1" xmlns="http://www.w3.org/2000/svg" xmlns:xlink="http://www.w3.org/1999/xlink" x="0px" y="0px"
	 viewBox="0 0 600 600" style="enable-background:new 0 0 600 600;" xml:space="preserve">
<style type="text/css">
	.st0{fill:#BFBFBF;}
	.st1{fill:#E2E2E2;}
	.st2{fill:#EB506E;}
	.st3{fill:#FFFFFF;}
	.st4{fill:#B1CEFC;}
	.st5{fill:none;}
	.st6{fill:#F7CD5B;}
	.st7{fill:#040844;}
	.st8{fill:#202124;}
	.st9{fill:#CCCCCC;}
	.st10{fill:#A3A3A3;}
	.st11{fill:#5492ED;}
</style>
<g id="plants">
	<path class="st0" d="M101.5,544.2c-6.6-6.5-13.6-14.7-20.2-24.9c-18.4-28.7-22.3-57.5-23.1-74.1c5,5.5,10,11.8,14.8,19
		C92.7,493.6,99.2,523.6,101.5,544.2z"/>
	<path class="st0" d="M101.5,546.2c-1.6-9.6-2.5-22.1-0.8-36.4c3.4-29.1,15.7-50.3,23.6-61.6c0.8,6.8,1.1,14.3,0.8,22.3
		C123.8,503.9,111.3,530.1,101.5,546.2z"/>
	<path class="st0" d="M101.5,544.2c-6.8-15.6-15.9-42.6-14.8-76.8c0.7-19.1,4.4-35.3,8.3-47.4c2.4,7.9,4.6,16.4,6.3,25.4
		C108.9,483.9,106.3,518.1,101.5,544.2z"/>
	<path class="st1" d="M446,515.8c-3.7-9.5-10.5-30.5-6.2-56.8c3.2-19.8,11.3-34.2,16.6-42.3c2.1,6.7,3.9,14.4,4.9,22.9
		C465.1,473.5,453.6,501.1,446,515.8z"/>
	<path class="st1" d="M447,513.8c0-10,1.3-25.2,7.7-42.4c7.8-21,19.7-35.1,27.3-42.8c0.8,7,0.9,15.2-0.5,24.3
		C476.5,485,456,505.7,447,513.8z"/>
	<path class="st1" d="M446,515.8c-4.5-5-9.1-11-13.2-18.3c-16.3-29.3-13.2-59.4-10.9-72.9c2.1,4.6,4.2,9.5,6.2,14.5
		C438.8,466.6,443.9,492.8,446,515.8z"/>
</g>
<g id="character">
	<g id="leg_left">
		<path class="st2" d="M444.5,194.5c2.9-7.2,5.7-14.4,8.6-21.7c4.8,1,11.1,2.6,18,5.6c27.9,11.6,49.1,35.7,45.8,40.8
			c-3.1,4.7-27.6-5.4-50.2-14.7C457.4,200.7,449.9,197.1,444.5,194.5z"/>
		<g>
			<g>
				<path class="st3" d="M473.3,201.8c-2.1-2.5-3.1-7.4-1.2-10.2c-0.2,0-0.4,0.1-0.6,0.1c1.3,1.2,1.3,3.8,1.4,5.4
					c0.2,1.7,0.2,3.4,0.2,5c0,0.5,0.7,0.5,0.8,0c0-2.3-0.1-4.5-0.4-6.8c-0.2-1.5-0.3-3.1-1.4-4.2c-0.2-0.2-0.4-0.1-0.6,0.1
					c-2.2,3.1-1,8.4,1.3,11.1C473.1,202.7,473.6,202.2,473.3,201.8L473.3,201.8z"/>
			</g>
		</g>
		<g>
			<g>
				<path class="st3" d="M473.3,202.1c-1.6,2.7-2.6,5.6-3,8.7c-0.1,1-0.8,4.7,0.8,5.2c4.1,1.4,3.2-12.6,2.8-14.3
					c-0.1-0.5-0.8-0.3-0.7,0.2c0.4,2.1,0.7,4.2,0.5,6.3c0,0.4-0.5,7.5-2.8,5.3c-0.7-0.6,0.4-4.4,0.6-5.3c0.5-2,1.3-3.9,2.4-5.7
					C474.2,202,473.5,201.7,473.3,202.1L473.3,202.1z"/>
			</g>
		</g>
		<g>
			<g>
				<path class="st3" d="M478.1,208.9c0.1-3,1-5.7,2.6-8.2c0.3-0.4-0.4-0.8-0.6-0.4c-1.7,2.6-2.6,5.5-2.7,8.6
					C477.4,209.3,478.1,209.3,478.1,208.9L478.1,208.9z"/>
			</g>
		</g>
		<g>
			<g>
				<path class="st3" d="M481.6,209.9c0.2-2.5,1.1-4.9,2.5-7c0.3-0.4-0.4-0.8-0.6-0.4c-1.5,2.2-2.4,4.7-2.6,7.3
					C480.8,210.4,481.6,210.4,481.6,209.9L481.6,209.9z"/>
			</g>
		</g>
		<g>
			<g>
				<path class="st3" d="M484.8,212c0.3-2.4,1.3-4.6,2.8-6.5c0.3-0.4-0.2-0.9-0.5-0.5c-1.7,2-2.7,4.4-3,7
					C484,212.5,484.7,212.5,484.8,212L484.8,212z"/>
			</g>
		</g>
		<g>
			<g>
				<path class="st3" d="M489.2,214c0.5-2.4,1.6-4.5,3.4-6.2c0.4-0.3-0.2-0.9-0.5-0.5c-1.9,1.7-3.1,4-3.6,6.5
					C488.4,214.3,489.1,214.5,489.2,214L489.2,214z"/>
			</g>
		</g>
		<g>
			<g>
				<path class="st3" d="M452.8,175.1c10.3,3.3,20,7.8,29.1,13.7c0.4,0.3,0.8-0.4,0.4-0.6c-9.1-5.9-18.9-10.5-29.3-13.8
					C452.5,174.2,452.3,175,452.8,175.1L452.8,175.1z"/>
			</g>
		</g>
		<path class="st4" d="M324.4,246.3c-5.9,3.3-14.4,8.7-22.7,17.4c-6.5,6.7-21.9,22.7-22.9,41.6c-1.1,21.8,17.3,44.3,45.1,56.2
			c13.9-2.5,25.2-4.1,32.6-5c17.4-2.2,24.1-2.2,46.1-5.2c8.8-1.2,17-2.4,27.3-4.9c7-1.7,12.8-3.4,16.9-4.7c0.7-0.8,1.6-2.1,2.5-3.8
			c1.1-2.2,1.5-4,1.7-4.8c3.3-14.5,3.7-17.8,3.7-17.8c1.9-18.7,3.9-15.9,9.2-73c1-10.4,2.2-24.4,3.4-41.1c-0.5-1.1-1.4-2.6-2.9-4
			c-3.3-3.1-7.2-3.4-9-3.6c-4.9-0.5-8.7,1.2-10.4,2c-1.1,2.6-2.7,6.5-4.9,11.3c-7.2,16.4-12,25.1-20.1,41.9
			c-2.5,5.3-6.2,13-10.5,22.6c-5.4-1.2-11.9-2.7-19.3-4.5c-11-2.8-19.9-5.3-25.6-7c-13.5-4-24-7.7-32.1-10.5
			C329.1,247.9,326.4,246.9,324.4,246.3z"/>
		<g>
			<path class="st5" d="M324.4,246.3c29.3,11.2,59.7,19.6,90.6,25.3"/>
		</g>
		<g>
			<path class="st5" d="M410.1,269.9c11.6-24.9,23.2-49.7,34.8-74.6"/>
		</g>
		<g>
			<path class="st5" d="M447,194.7c3.6-1.4,7.7-1.9,11.5-0.9c3.8,1,7.2,3.6,8.7,7.2"/>
		</g>
		<g>
			<path class="st5" d="M323.9,361.4c40.7-8.4,83.4-6.8,122.9-19.9"/>
		</g>
		<g>
			<path class="st5" d="M467.5,205c-3.3,36.8-7.5,73.6-12.8,110.1c-1,7.2-2.1,14.4-4.9,21.1"/>
		</g>
	</g>
	<g id="leg_right">
		<path class="st2" d="M306,483.5c8.1,1.7,16.2,3.3,24.4,5c0.5,3.8,1,8.9,1.2,15c1.2,28.3-3.9,61.5-10,61.8
			c-3.4,0.2-8.7-9.6-17.2-54.3C305,501.8,305.5,492.7,306,483.5z"/>
		<g>
			<g>
				<path class="st3" d="M309.6,515.1c-0.2-2.5-0.5-6.8,1.4-8.7c0.4-0.8,1-0.7,2.1,0.3c0,0.5-0.1,1-0.2,1.5c-0.1,0.7-0.3,1.3-0.6,2
					c-0.6,1.8-1.6,3.3-2.7,4.8c-0.3,0.4,0.2,0.9,0.5,0.5c1.2-1.5,6.4-10,2.5-11c-1.6-0.4-2.5,2-3,3c-0.9,2.4-0.9,5.1-0.8,7.6
					C308.9,515.6,309.7,515.6,309.6,515.1L309.6,515.1z"/>
			</g>
		</g>
		<g>
			<g>
				<path class="st3" d="M309.1,515.3c-1.9-1.3-4.2-1.7-6.3-0.9c-1.8,0.7-4,2.6-3.8,4.8c0.5,5.5,9-1.8,10.4-3.1
					c0.3-0.3-0.2-0.9-0.5-0.5c-1.1,1-2.1,2.1-3.3,2.9c-0.5,0.4-1.1,0.7-1.6,1c-0.5,0.3-1.1,0.5-1.7,0.7c-0.8,0.4-1.3,0-1.3-1.3
					c-0.9-0.9-0.9-1.6,0-2.3c0.2-0.3,0.5-0.5,0.8-0.7c0.7-0.6,1.5-0.9,2.4-1.1c1.7-0.3,3.2,0.1,4.6,1.1
					C309.1,516.2,309.5,515.5,309.1,515.3L309.1,515.3z"/>
			</g>
		</g>
		<g>
			<g>
				<path class="st3" d="M307.3,523.8c1-1.6,2.5-2.8,4.3-3.5c0.5-0.2,0.3-0.9-0.2-0.7c-2,0.7-3.6,2-4.7,3.8
					C306.4,523.8,307,524.2,307.3,523.8L307.3,523.8z"/>
			</g>
		</g>
		<g>
			<g>
				<path class="st3" d="M307.8,528.2c1.1-1.7,2.7-2.8,4.7-3.4c0.5-0.1,0.3-0.8-0.2-0.7c-2.1,0.6-3.9,1.9-5.1,3.7
					C306.8,528.3,307.5,528.6,307.8,528.2L307.8,528.2z"/>
			</g>
		</g>
		<g>
			<g>
				<path class="st3" d="M308.9,532.4c0.9-1.6,2.5-2.7,4.4-2.8c0.5,0,0.5-0.8,0-0.8c-2.1,0.1-4,1.3-5,3.2
					C308,532.5,308.6,532.9,308.9,532.4L308.9,532.4z"/>
			</g>
		</g>
		<g>
			<g>
				<path class="st3" d="M310.2,538.5c0.8-1,1.9-1.7,3.1-2c0.5-0.1,0.3-0.8-0.2-0.7c-1.4,0.3-2.6,1.1-3.5,2.2
					C309.4,538.4,309.9,538.9,310.2,538.5L310.2,538.5z"/>
			</g>
		</g>
		<g>
			<g>
				<path class="st3" d="M327.2,489.2c0.9,19,0.5,38-1.2,57c0,0.5,0.7,0.5,0.8,0c1.7-18.9,2.1-38,1.2-57
					C327.9,488.7,327.2,488.7,327.2,489.2L327.2,489.2z"/>
			</g>
		</g>
		<path class="st4" d="M246.5,320.8c-3.4,4.5-7.9,10.7-13.1,18c-12.5,17.8-20.8,31.1-31.2,47.9c-17,27.5-20.6,35.1-22.7,40
			c-1.5,3.4-7,11.4-8.7,23.2c-0.3,2.3-0.5,4.2-0.5,5.5c1.2,2.3,3,5.3,5.4,8.7c1.9,2.7,8.2,11.5,17.6,19.1
			c10.8,8.8,21.2,12.5,32.1,16.2c14.5,5,25.8,6.5,41,8.5c10.3,1.3,24.2,2.7,40.9,3c0.7-1.7,1.2-3.7,1.6-5.9c1.5-8.8-1-16.2-2.8-20.2
			c-2.6-1.6-6.2-4-10.4-6.8c-7-4.7-15.5-10.5-25.5-18.7c-4-3.3-9.2-7.8-15.1-13.5c5.8-7.8,11.9-15.6,18.1-23.5
			c17.1-21.6,34.2-41.7,51.2-60.5c1.5-2.7,11.1-20.4,3.6-36.5c-9.1-19.4-35.9-21.7-50.9-19.3C261.8,308.2,251.4,316.4,246.5,320.8z"
			/>
		<g>
			<path class="st5" d="M246.5,320.8c-16.1,21.1-30.3,43.5-44.3,65.9c-12.9,20.7-26,41.8-32,65.5"/>
		</g>
		<g>
			<path class="st5" d="M172.1,457.5c6.7,14.6,19.2,25.9,33.4,33.5s29.9,11.6,45.7,14.4c17.7,3.1,35.8,4.8,53.8,4.9"/>
		</g>
		<g>
			<path class="st5" d="M324.2,361.7c-27.5,29.9-52.5,62-77.5,94"/>
		</g>
		<g>
			<path class="st5" d="M254.9,445.5c15.3,15.2,32.5,28.4,51.1,39.2"/>
		</g>
		<g>
			<path class="st5" d="M306.9,486.7c3,6.9,3.4,14.9,0.9,22"/>
		</g>
	</g>
	<g id="hand_left">
		<path class="st6" d="M340.9,179.2c0.1,1.8,0.2,4.1,0.4,6.8c0.3,4.9,0.7,8.7,0.9,10.3c1.1,9.9,1.5,7.2,1.8,12.3
			c0.1,1.9,0.2,4.1,1.7,6.4c0.9,1.4,2,2.3,2.8,2.8c0.7-1.7,1.4-3.4,2-5.1c0.4,1.6,0.8,3.6,1,5.9c0.2,3.1-0.1,5.8-0.5,7.8
			c0.9,0.3,2.2,0.6,3.9,0.4c3.7-0.4,6-2.9,7.2-4.3c0.9-1,2.3-2.8,3.3-5.5c-0.2-2.1-0.6-5.3-1.3-9c-1.4-7.7-3.3-13.6-4.5-17.5
			c-0.8-2.4-1.9-5.7-3.3-9.6C351.1,180.3,346,179.7,340.9,179.2z"/>
		<path class="st7" d="M251.6,85.7c3.8-3.2,8.8-6.6,15.6-10.2c5.3-2.7,10.5-4.9,19-7.7c9.8-3.2,21.7-7.3,38.3-10.5
			c9.1-1.8,16.1-3.2,26.1-3.6c9.4-0.4,17.2,0.2,22.9,0.8c0.3,1.6,0.7,3.8,1.1,6.4c0.5,3.2,1,8,1.1,15.4c0.3,16.3-1.2,30.5-1.2,30.5
			c-1.4,13.2-3.4,23.1-5,30.4c-3.4,15.9-7.2,28.2-9.4,35.3c-1.4,4.3-2.6,8-3.5,10.6c-1.2,0.6-2.6,1.2-4.2,1.6
			c-4.5,1.3-8.4,0.9-11,0.5c-0.5-4.6-1-9.3-1.5-14c-1.5-15-3-29.8-4.3-44.6c-3.6,3.3-9,8.4-15.4,14.9c-11,11-11.9,12.8-15.5,15.6
			c-9.2,7.3-25.5,13.6-38.3,9.2c-29.4-10.1-26-71-16.4-79.4C250.2,86.9,250.8,86.3,251.6,85.7z"/>
		<g>
			<path class="st5" d="M264.2,76.9c28.1-13.1,58.6-21.1,89.5-23.5c6-0.5,12.2-0.7,18.1,0.8"/>
		</g>
		<g>
			<path class="st5" d="M374.3,57.8c5.5,41.8-3.8,84.2-17.1,124.2"/>
		</g>
		<g>
			<g>
				<path class="st3" d="M307.8,154c13.7-13,27.4-26.1,41.1-39.1c0.4-0.3-0.2-0.9-0.5-0.5c-13.7,13-27.4,26.1-41.1,39.1
					C306.9,153.8,307.4,154.4,307.8,154L307.8,154z"/>
			</g>
		</g>
		<g>
			<g>
				<path class="st8" d="M335.6,126.8c1.4,18.9,3.2,37.9,5.3,56.7c0.1,0.5,0.8,0.5,0.8,0c-2.1-18.9-3.9-37.8-5.3-56.7
					C336.3,126.3,335.5,126.3,335.6,126.8L335.6,126.8z"/>
			</g>
		</g>
		<g>
			<g>
				<path class="st8" d="M341.4,185.6c5.4,0.9,10.6,0.2,15.5-2.1c0.4-0.2,0.1-0.9-0.4-0.6c-4.7,2.2-9.8,2.9-14.9,2.1
					C341.1,184.8,340.9,185.5,341.4,185.6L341.4,185.6z"/>
			</g>
		</g>
		<g>
			<path class="st5" d="M341.2,186c0.5,8.1,1.5,16.2,3,24.2c0.4,2.2,0.9,4.5,2.3,6.2"/>
		</g>
		<g>
			<g>
				<path class="st8" d="M349,217.1c1.5-2.1,2.1-4.4,2-7c0-0.5-0.8-0.5-0.8,0c0.1,2.4-0.5,4.6-1.9,6.6
					C348.1,217.1,348.7,217.5,349,217.1L349,217.1z"/>
			</g>
		</g>
		<g>
			<path class="st5" d="M357.4,184.3c4.1,10.5,6.8,21.5,8,32.7"/>
		</g>
		<g>
			<g>
				<path class="st8" d="M350.3,212c1,4.5,1.1,8.9,0.3,13.4c-0.1,0.5,0.6,0.7,0.7,0.2c0.8-4.6,0.7-9.2-0.3-13.8
					C350.9,211.3,350.2,211.5,350.3,212L350.3,212z"/>
			</g>
		</g>
		<g>
			<g>
				<path class="st8" d="M353.5,225.6c1.9-5.5,2.8-11,2.4-16.8c0-0.5-0.8-0.5-0.8,0c0.3,5.7-0.5,11.2-2.4,16.6
					C352.6,225.8,353.3,226,353.5,225.6L353.5,225.6z"/>
			</g>
		</g>
		<g>
			<g>
				<path class="st8" d="M357.9,224.2c0.9-4.9,1.2-9.7,0.8-14.7c0-0.5-0.8-0.5-0.8,0c0.4,4.9,0.2,9.7-0.8,14.5
					C357.1,224.5,357.8,224.7,357.9,224.2L357.9,224.2z"/>
			</g>
		</g>
		<g>
			<g>
				<path class="st8" d="M360.8,222.6c1.3-4.3,1.6-8.7,0.9-13.2c-0.1-0.5-0.8-0.3-0.7,0.2c0.6,4.3,0.3,8.6-0.9,12.8
					C359.9,222.9,360.7,223.1,360.8,222.6L360.8,222.6z"/>
			</g>
		</g>
		<g>
			<g>
				<path class="st8" d="M343.4,184.4c17-14.8,33.3-30.4,48.9-46.6c0.3-0.3-0.2-0.9-0.5-0.5c-15.6,16.2-31.9,31.8-48.9,46.6
					C342.5,184.2,343.1,184.7,343.4,184.4L343.4,184.4z"/>
			</g>
		</g>
		<g>
			<g>
				<path class="st8" d="M359.6,187c8.3-1.5,16.4-3.4,24.5-5.7c0.5-0.1,0.3-0.9-0.2-0.7c-8.1,2.3-16.2,4.2-24.5,5.7
					C358.9,186.3,359.1,187.1,359.6,187L359.6,187z"/>
			</g>
		</g>
		<path class="st9" d="M393.2,120.3c0.5,5.6,0.7,11.8,0.3,18.6c-1.2,21.4-7.8,38.5-13.7,50.1c2-0.8,3.9-1.5,5.9-2.3
			c0.8,3.5,1.5,6.9,2.3,10.4c9.4-5.1,19.4-11.1,29.6-18.2c21.1-14.7,37.7-30.3,50.5-44.3c-0.4-6.1-0.9-12.4-1.6-18.9
			c-2.2-19.8-5.6-38-9.8-54.4C435.5,81.1,414.3,100.7,393.2,120.3z"/>
		<g>
			<g>
				<path class="st3" d="M394.4,122c1.2-0.6,2.2-1.4,3.1-2.4c-0.2,0-0.4-0.1-0.6-0.1c0.9,1.7,1.5,3.4,1.8,5.3
					c0.1,0.5,0.8,0.3,0.7-0.2c-0.3-2-0.9-3.8-1.9-5.5c-0.1-0.2-0.4-0.3-0.6-0.1c-0.9,0.9-1.8,1.7-3,2.3
					C393.6,121.5,393.9,122.2,394.4,122L394.4,122z"/>
			</g>
		</g>
		<g>
			<g>
				<path class="st3" d="M399.3,127.7c-0.1,22.3-3.5,44.4-10,65.7c-0.1,0.5,0.6,0.7,0.7,0.2c6.5-21.4,9.9-43.5,10-65.9
					C400.1,127.3,399.3,127.3,399.3,127.7L399.3,127.7z"/>
			</g>
		</g>
		<g>
			<g>
				<path class="st3" d="M404.1,118.5c17.7-13.2,33.6-28.6,47.4-45.8c0.3-0.4-0.2-0.9-0.5-0.5c-13.8,17.2-29.6,32.5-47.3,45.7
					C403.3,118.1,403.7,118.8,404.1,118.5L404.1,118.5z"/>
			</g>
		</g>
	</g>
	<g id="torso">
		<path class="st7" d="M137.4,241.6c2.6-5,6.3-11.9,10.8-20c5.9-10.6,11-19.2,13.4-23.2c18.6-30.7,43-60.8,43-60.8
			c15.9-19.5,30.7-35.1,42.5-46.6c5.2-5.1,9.7-9.3,13.1-12.4c2.7-0.3,9.6-0.6,17,3.3c8.5,4.5,12.2,11.7,13.3,14.1
			c2.1,7,4.9,16.7,8.2,28.4c4.2,14.9,7.6,27,11.2,42.2c2.2,9,5.1,21.3,7.8,36.7c2.5,14,5.2,32.8,6.6,55.5c-1.1,3.3-2.9,7.8-5.5,13.1
			c-6,11.8-12.9,19.6-17.4,24.6c-5.5,6.1-10,11.3-17.7,16.5c-7.1,4.9-13.8,7.7-18.6,9.3c-2.2-0.1-5.6-0.3-9.8-0.5
			c-18-0.8-26.6-0.6-41-1.1c-15-0.5-22.5-0.8-25.7-1.4c-6.5-1.3-26.9-5.4-40.7-22.6C130,274.2,136.4,245.6,137.4,241.6z"/>
		<g>
			<g>
				<path class="st8" d="M138.6,240.8c30.4-60.9,71.7-115.9,121.8-161.9c0.4-0.3-0.2-0.9-0.5-0.5c-50.1,46.1-91.5,101.1-121.9,162.1
					C137.7,240.8,138.4,241.2,138.6,240.8L138.6,240.8z"/>
			</g>
		</g>
		<g>
			<path class="st5" d="M290.5,96c15,51.3,30.1,103.1,33.4,156.4"/>
		</g>
		<g>
			<path class="st5" d="M189.2,318c24.7,3.3,49.6,4.5,74.4,3.5"/>
		</g>
		<g>
			<g>
				<path class="st8" d="M266.8,321.8c13.7-4.3,24.9-13.5,34.2-24.2c9.8-11.3,19.3-24.2,23.7-38.7c0.1-0.5-0.6-0.7-0.7-0.2
					c-4.3,14.3-13.8,27.2-23.5,38.3c-9.3,10.6-20.3,19.7-33.9,24C266.1,321.2,266.3,321.9,266.8,321.8L266.8,321.8z"/>
			</g>
		</g>
		<path class="st10" d="M269.4,171c1-0.3,6.7-1.3,6.7-1.3l2.2,130.3l-4.4,1.6L269.4,171z"/>
		<ellipse class="st10" cx="254.2" cy="208.3" rx="4.7" ry="7.5"/>
		<ellipse class="st10" cx="292.5" cy="268.9" rx="4.6" ry="6.9"/>
	</g>
	<g id="hand_right">
		<path class="st6" d="M103.5,274.9c-5.9-0.8-9.3-7.1-14.5-16.9c-1.2-2.3-3.6-6.9-7.1-16.7c-1.7-4.9-4.4-12.3-7-22.8
			c-3.4-13.7-4.3-24.8-5.2-34.5c-0.3-3.1-0.5-5.8-0.6-7.6c0.9,0.2,2.2,0.4,3.7,0.5c0.7,0.1,2.7,0.2,5.6,0.1c2.5-0.1,2.9-0.3,5-0.4
			c1.5-0.1,3.7-0.1,6.4,0.1c1.2,0.9,2.8,2.3,4.4,4.1c1.3,1.4,3.2,3.8,5.5,8.2c3.3,6.3,5.1,12.7,6,17.1c1,1,2,2,3.1,3.1
			c0-1.3,0-3.1-0.4-5.3c-0.5-3.2-1.3-4.9-0.6-5.5c0.8-0.6,2.9,0.9,3.3,1.3c1.3,1,2.5,2.3,4.1,5.8c1,2.1,1.6,3.9,2.2,5.4
			c0.8,2.5,1.8,5.3,2.7,9.2c0.7,2.8,1.4,6.6,2,11.3c1.1,9.4,1.9,16,0.2,24c-1.1,5-2.2,10-6.5,14.2
			C114.5,270.7,109.4,275.7,103.5,274.9z"/>
		<path class="st7" d="M142.2,235.3c-0.8,1-1.6,2.1-2.5,3.1c-4.8,6.3-8.5,12.6-11.4,18.6c-1.3-2.1-2.6-4.3-3.9-6.4
			c-1.3,0.7-3.2,1.9-5.5,3.2c-5.9,3.4-8.8,5.1-10.2,5.8c-3.2,1.5-8.5,3-17,1.6c0.5,3.1,1.1,7.5,2,12.8c1.6,9.8,4.2,23.8,10.6,51.1
			c8.7,37.1,8.8,31.4,15,58.8c1.5,6.6,4,17.8,9.2,32.5c2.5,7.1,4.9,12.8,6.5,16.6c1-0.4,2.5-1,4.1-2.1c3.6-2.5,5.4-5.6,6.5-7.3
			c2.7-4.5,5.8-8.8,8.3-13.4c5.1-9.5,4-6.5,10.1-17.7c3.2-5.8,14-26.1,31.5-63.8c2.2-4.7,5.4-11.8,9.3-20.4
			c-0.1-7.8-1.3-18.9-6.9-30.7C182.5,245.5,147.9,236.6,142.2,235.3z"/>
		<g>
			<path class="st5" d="M69.4,176.9c0.8,28.6,7.8,57,20.3,82.7"/>
		</g>
		<g>
			<g>
				<path class="st8" d="M71.9,177.8c6.5,8,11.5,16.8,15.1,26.4c0.2,0.4,0.9,0.3,0.7-0.2c-3.7-9.7-8.8-18.7-15.3-26.8
					C72.1,176.9,71.6,177.5,71.9,177.8L71.9,177.8z"/>
			</g>
		</g>
		<g>
			<g>
				<path class="st8" d="M76.3,177.8c7.9,6.8,13.3,15.6,15.8,25.8c0.1,0.5,0.8,0.3,0.7-0.2c-2.5-10.3-8-19.2-16-26.1
					C76.5,176.9,76,177.4,76.3,177.8L76.3,177.8z"/>
			</g>
		</g>
		<g>
			<g>
				<path class="st8" d="M82.7,177.4C91,184.2,95.1,193.9,98,204c0.1,0.5,0.9,0.3,0.7-0.2c-2.8-10.2-7.1-20-15.4-26.8
					C82.9,176.6,82.4,177.1,82.7,177.4L82.7,177.4z"/>
			</g>
		</g>
		<g>
			<g>
				<path class="st8" d="M89.5,177c9.2,7.5,12.6,18,15.5,29.1c0.1,0.5,0.8,0.3,0.7-0.2c-3-11.3-6.4-21.8-15.7-29.5
					C89.7,176.2,89.1,176.7,89.5,177L89.5,177z"/>
			</g>
		</g>
		<g>
			<g>
				<path class="st8" d="M111.8,216.1c-2.2-5.7-3.4-11.6-3.6-17.7c0-0.5-0.8-0.5-0.8,0c0.2,6.2,1.4,12.1,3.6,17.9
					C111.2,216.7,111.9,216.5,111.8,216.1L111.8,216.1z"/>
			</g>
		</g>
		<g>
			<path class="st5" d="M109.2,198.3c3.7,2,5.7,6.1,7.2,10c5.3,13.9,7.3,29,5.8,43.8"/>
		</g>
		<g>
			<g>
				<path class="st8" d="M91.6,261.5c10.1,1.5,20-1.3,27.9-7.8c0.4-0.3-0.2-0.8-0.5-0.5c-7.7,6.3-17.3,9-27.2,7.6
					C91.3,260.7,91.1,261.4,91.6,261.5L91.6,261.5z"/>
			</g>
		</g>
		<g>
			<g>
				<path class="st3" d="M124.3,251.6c11.3,22.1,23.7,43.5,37.1,64.4c0.3,0.4,0.9,0,0.6-0.4c-13.4-20.9-25.7-42.3-37.1-64.4
					C124.8,250.8,124.1,251.1,124.3,251.6L124.3,251.6z"/>
			</g>
		</g>
		<g>
			<path class="st5" d="M92,263.5c6.9,43.9,18.4,87,29.9,129.9c3.6,13.5,7.2,27.1,13.2,39.7c5.4-1.7,8.9-6.8,12-11.6
				c22.4-35.7,39.9-74.1,57.3-112.4"/>
		</g>
		<g>
			<g>
				<path class="st8" d="M128.6,257.2c4.3-7.3,8.4-15.1,13.8-21.7c0.3-0.4-0.2-0.9-0.5-0.5c-5.5,6.7-9.6,14.4-13.9,21.8
					C127.7,257.2,128.4,257.6,128.6,257.2L128.6,257.2z"/>
			</g>
		</g>
	</g>
	<g id="head">
		<path class="st11" d="M211.8,159.5c-2.5,0.3-6.2,1-10,3.1c-3,1.6-5.7,3.8-10.1,9.3c-4.7,5.8-5.8,8.4-12.2,17.8
			c-7.1,10.6-9.1,12.4-10.3,13.4c-3.2,2.6-8.7,7.2-16.1,6.9c-9.6-0.3-15.7-8.5-17.4-10.7c-5.9-7.9-5.8-16.6-5.8-20.4
			c0.1-6.8,2-11.8,3.4-15.3c4.9-12.4,12.9-19.6,15.4-21.6c3-2.5,7.9-6,14.9-8.7c-0.9-0.6-2.2-1.4-3.6-2.7c-4.3-3.9-5.9-8.4-6.7-10.7
			c-2.6-7.6-1.5-14.7-0.6-18c0,0,2.9-11.6,13.4-19.2c3.5-2.6,5.7-2.9,6.7-2.9c2-0.1,2.7,0.5,7.9,1.4c3.2,0.6,4.9,0.9,6.1,0.7
			c1-0.1,3.7-0.7,7.3-4.6c3.5-3.7,4.7-7,6.3-10.2c3.5-6.9,7.9-11.2,11.6-14.8c1.7-1.7,7.2-6.8,15.7-11.1c6.1-3.1,13.9-7.1,24.7-6.8
			c3.4,0.1,11.5,0.4,19.7,5.4c8.4,5.2,12.3,12.5,16.1,19.7c1.8,3.4,4.7,9,6.2,16.9c2,10.2,0.5,18.2-0.9,25.8
			c-1.7,8.7-3.8,20-12,32.1c-8,11.8-17.3,17.9-24.5,22.5c-9.8,6.4-21.2,13.5-34.5,11.2c-2.1-0.4-3.7-0.9-4.8-1.2
			C215.9,164.4,213.9,162,211.8,159.5z"/>
		<path class="st2" d="M173,130.4c2.8-0.7,7.2-1.4,12.6-0.8c7.3,0.9,12.5,4,15.1,5.8c-0.4-0.7-4.4-8.3-13.4-9.6
			C179.3,124.8,173.7,129.7,173,130.4z"/>
		<path class="st6" d="M175.4,195.6c0.8,1.2,2.1,3,4,4.8c1.7,1.5,8.8,8.2,18.8,7.4c6.7-0.5,11.3-4,12.9-5.2c1.5-1.2,2.6-2.3,3.4-3.1
			c0.7,0.3,1.4,0.6,2.1,0.9c-0.2,0.8-0.5,2.4,0.1,4.2c0.8,2.2,2.7,4.4,5.3,4.8c3,0.4,5.3-1.9,7-3.6c3.1-3.1,3.9-6.8,4.2-8.2
			c0.3-1.5,0.6-3.9,0-6.7c-0.8-4.1-3-6.9-4.1-8.1c-2.6-0.1-5.2-0.2-7.9-0.3c0.1-2.6-0.2-4.7-0.4-6.2c-0.4-2.5-1.4-8.2-5.6-13.5
			c-1.1-1.5-2.2-2.5-3-3.2c-2.1,0.1-5.2,0.6-8.6,2.1c-1.5,0.7-5,2.4-10,7.9c-3.6,3.9-5.1,6.5-9.9,13.7
			C182,186.1,179.1,190.4,175.4,195.6z"/>
		<g>
			<path class="st5" d="M179.5,200.4c5.7,6.7,15.8,9.1,24.1,6.3c8.4-2.8,14.8-10.3,16.9-18.9c2.1-8.6-0.1-17.9-5.2-25.2"/>
		</g>
		<g>
			<g>
				<path class="st8" d="M214.5,199.8c1.8,0.5,3.5,0.9,5.3,1.4c0.5,0.1,0.7-0.6,0.2-0.7c-1.8-0.5-3.5-0.9-5.3-1.4
					C214.2,198.9,214,199.6,214.5,199.8L214.5,199.8z"/>
			</g>
		</g>
		<g>
			<path class="st5" d="M216.5,201.9c-0.3,3.4,2.2,7,5.5,7.3c2.2,0.2,4.4-1,6-2.5c3.3-3,5.3-7.3,5.5-11.8c0.2-4.5-1.5-9-4.5-12.2"/>
		</g>
		<g>
			<g>
				<path class="st8" d="M190.4,186.2c3.1,4.2,8.3,13.6,14.8,9.4c0.4-0.3,0-0.9-0.4-0.6c-6,3.9-11-5.2-13.8-9.1
					C190.7,185.4,190.1,185.8,190.4,186.2L190.4,186.2z"/>
			</g>
		</g>
		<g>
			<path class="st5" d="M145.4,144.9c-6.2,7.2-11.5,15.4-14,24.6c-2.5,9.2-1.9,19.4,2.9,27.6c2.3,3.8,5.5,7.2,9.5,9.2
				c4.5,2.3,9.8,2.7,14.7,1.5s9.3-4,12.8-7.7c1.8-2,3.4-4.2,5-6.4c3.5-5,7-10,10.5-15c3.2-4.6,6.4-9.2,10.6-12.9s9.5-6.4,15-6.4"/>
		</g>
		<g>
			<path class="st5" d="M145.3,144.9c8.3-7.1,17.9-13.5,28.8-14.4c8.5-0.7,17.1,2.2,23.9,7.3c6.8,5.1,11.9,12.3,15.3,20.1"/>
		</g>
		<g>
			<path class="st5" d="M163.7,133.4c-7.2-4.2-11.3-12.6-11.6-20.9c-0.3-8.3,3-16.5,7.8-23.2c4-5.6,10.3-10.7,17-9.3
				c2.3,0.5,4.5,1.8,6.8,2.1c4,0.6,7.9-1.7,10.5-4.7c2.7-3,4.3-6.7,6.3-10.2c9.2-16.2,25.7-28.1,44-31.8c6.3-1.3,12.9-1.6,19.1,0.3
				c12.2,3.6,20.5,14.9,25.9,26.4c2.5,5.2,4.5,10.7,5.3,16.4c0.7,5.1,0.5,10.2-0.1,15.4c-1.6,15-5.7,30-14.4,42.3
				c-8.7,12.2-21.5,21.1-35.3,26.7c-8.8,3.6-18.4,5.9-27.7,4"/>
		</g>
		
			<ellipse transform="matrix(0.6518 -0.7584 0.7584 0.6518 -65.0233 215.2975)" class="st8" cx="201.9" cy="178.5" rx="1.5" ry="2.7"/>
	</g>
</g>
<g id="speed_lines">
	<g>
		<g>
			<path class="st8" d="M297.6,75.6c30.4-18.7,60.2-38.5,89.3-59.2c0.4-0.3,0-0.9-0.4-0.6c-29.1,20.7-58.9,40.5-89.3,59.2
				C296.8,75.2,297.2,75.9,297.6,75.6L297.6,75.6z"/>
		</g>
	</g>
	<g>
		<g>
			<path class="st8" d="M336.4,68c26.6-17,52.9-34.5,78.9-52.5c0.4-0.3,0-0.9-0.4-0.6c-26,18-52.3,35.4-78.9,52.5
				C335.6,67.6,336,68.3,336.4,68L336.4,68z"/>
		</g>
	</g>
	<g>
		<g>
			<path class="st8" d="M366,72.1c15.5-11.8,31.6-22.9,48.3-33.1c0.4-0.3,0-0.9-0.4-0.6c-16.6,10.2-32.7,21.3-48.3,33.1
				C365.2,71.8,365.6,72.4,366,72.1L366,72.1z"/>
		</g>
	</g>
	<g>
		<g>
			<path class="st8" d="M346.2,250.1c3.8-3.5,7.6-6.9,11.4-10.4c0.4-0.3-0.2-0.9-0.5-0.5c-3.8,3.5-7.6,6.9-11.4,10.4
				C345.3,249.9,345.9,250.4,346.2,250.1L346.2,250.1z"/>
		</g>
	</g>
	<g>
		<g>
			<path class="st8" d="M336.5,275.4c12.7-12.6,25.1-25.4,37.3-38.4c0.3-0.4-0.2-0.9-0.5-0.5c-12.2,13-24.6,25.8-37.3,38.4
				C335.6,275.2,336.2,275.7,336.5,275.4L336.5,275.4z"/>
		</g>
	</g>
	<g>
		<g>
			<path class="st8" d="M365,261.3c5.7-6,11.4-12,17.1-18c0.3-0.4-0.2-0.9-0.5-0.5c-5.7,6-11.4,12-17.1,18
				C364.1,261.1,364.7,261.7,365,261.3L365,261.3z"/>
		</g>
	</g>
	<g>
		<g>
			<path class="st8" d="M375.5,273.7c5.4-6.6,10.8-13.2,16.1-19.8c0.3-0.4-0.2-0.9-0.5-0.5c-5.4,6.6-10.8,13.2-16.1,19.8
				C374.7,273.6,375.2,274.1,375.5,273.7L375.5,273.7z"/>
		</g>
	</g>
	<g>
		<g>
			<path class="st8" d="M254.3,464.6c12-10.3,24-20.6,35.9-30.9c0.4-0.3-0.2-0.8-0.5-0.5c-12,10.3-24,20.6-35.9,30.9
				C253.4,464.3,253.9,464.9,254.3,464.6L254.3,464.6z"/>
		</g>
	</g>
	<g>
		<g>
			<path class="st8" d="M272.7,459.6c6.1-5.3,12.3-10.6,18.4-15.9c0.4-0.3-0.2-0.8-0.5-0.5c-6.1,5.3-12.3,10.6-18.4,15.9
				C271.9,459.4,272.4,460,272.7,459.6L272.7,459.6z"/>
		</g>
	</g>
	<g>
		<g>
			<path class="st8" d="M269.2,474.4c9.8-8.6,19.6-17.2,29.4-25.8c0.4-0.3-0.2-0.8-0.5-0.5c-9.8,8.6-19.6,17.2-29.4,25.8
				C268.3,474.2,268.8,474.7,269.2,474.4L269.2,474.4z"/>
		</g>
	</g>
</g>
</svg>
