<?xml version="1.0" encoding="utf-8"?>
<!-- Generator: Adobe Illustrator 23.0.3, SVG Export Plug-In . SVG Version: 6.00 Build 0)  -->
<svg version="1.1" xmlns="http://www.w3.org/2000/svg" xmlns:xlink="http://www.w3.org/1999/xlink" x="0px" y="0px"
	 viewBox="0 0 458.4 567.5" style="enable-background:new 0 0 458.4 567.5;" xml:space="preserve">
<style type="text/css">
	.st0{fill:#E2E2E2;}
	.st1{fill:#BCBCBC;}
	.st2{fill:#FFFFFF;stroke:#202124;stroke-width:0.75;stroke-miterlimit:10;}
	.st3{fill:none;stroke:#202124;stroke-width:0.75;stroke-miterlimit:10;}
	.st4{fill:#EB506E;}
	.st5{fill:#D1D1D1;}
	.st6{fill:#202124;}
	.st7{fill:#B1CEFC;}
	.st8{fill:#5185EC;}
	.st9{fill:#EAEAEA;}
	.st10{fill:#FFFFFF;}
	.st11{fill:none;}
	.st12{fill:#040844;}
	.st13{fill:#F7CD5B;}
</style>
<g id="bank">
	<path class="st0" d="M303.2,290.3h-8v-18.8c0-8.4-7.3-15.3-16.2-15.3H170.4c-8.9,0-16.2,6.8-16.2,15.3v18.8h-11.4
		c-23.3,0-42.2,17.8-42.2,39.8v187.6c0,11,4.7,20.9,12.4,28.1c12.1,11.4,27.1,11.7,29.9,11.7c20,4.8,46.7,9.4,78.4,9.6
		c33.4,0.2,61.5-4.6,82.1-9.6c23.3,0,42.2-17.8,42.2-39.8V330.1C345.5,308.1,326.6,290.3,303.2,290.3z"/>
	<path class="st1" d="M210.2,555.9c-7.5,3.8-19.9,8.5-35.3,8.1c-13.6-0.3-24.6-4.5-31.7-8.1c0-65.9,0-131.8,0-197.7h67.1V555.9z"/>
	<ellipse class="st2" cx="176.6" cy="359.6" rx="33.5" ry="12.7"/>
	<path class="st3" d="M143.1,376c6.4,3.9,17.7,9.4,32.2,9.7c15.9,0.4,28.3-5.7,34.9-9.7"/>
	<path class="st3" d="M143.1,387.3c6.4,3.9,17.7,9.4,32.2,9.7c15.9,0.4,28.3-5.7,34.9-9.7"/>
	<path class="st3" d="M143.1,398.6c6.4,3.9,17.7,9.4,32.2,9.7c15.9,0.4,28.3-5.7,34.9-9.7"/>
	<path class="st3" d="M143.1,409.9c6.4,3.9,17.7,9.4,32.2,9.7c15.9,0.4,28.3-5.7,34.9-9.7"/>
	<path class="st3" d="M143.1,419.6c6.4,3.9,17.7,9.4,32.2,9.7c15.9,0.4,28.3-5.7,34.9-9.7"/>
	<path class="st3" d="M143.1,431c6.4,3.9,17.7,9.4,32.2,9.7c15.9,0.4,28.3-5.7,34.9-9.7"/>
	<path class="st3" d="M143.1,442.3c6.4,3.9,17.7,9.4,32.2,9.7c15.9,0.4,28.3-5.7,34.9-9.7"/>
	<path class="st3" d="M143.1,453.6c6.4,3.9,17.7,9.4,32.2,9.7c15.9,0.4,28.3-5.7,34.9-9.7"/>
	<path class="st3" d="M143.1,463.3c6.4,3.9,17.7,9.4,32.2,9.7c15.9,0.4,28.3-5.7,34.9-9.7"/>
	<path class="st3" d="M143.1,474.6c6.4,3.9,17.7,9.4,32.2,9.7c15.9,0.4,28.3-5.7,34.9-9.7"/>
	<path class="st3" d="M143.1,485.9c6.4,3.9,17.7,9.4,32.2,9.7c15.9,0.4,28.3-5.7,34.9-9.7"/>
	<path class="st3" d="M143.1,497.3c6.4,3.9,17.7,9.4,32.2,9.7c15.9,0.4,28.3-5.7,34.9-9.7"/>
	<path class="st3" d="M143.1,507c6.4,3.9,17.7,9.4,32.2,9.7c15.9,0.4,28.3-5.7,34.9-9.7"/>
	<path class="st3" d="M143.1,518.3c6.4,3.9,17.7,9.4,32.2,9.7c15.9,0.4,28.3-5.7,34.9-9.7"/>
	<path class="st3" d="M143.1,529.6c6.4,3.9,17.7,9.4,32.2,9.7c15.9,0.4,28.3-5.7,34.9-9.7"/>
	<path class="st3" d="M143.1,540.9c6.4,3.9,17.7,9.4,32.2,9.7c15.9,0.4,28.3-5.7,34.9-9.7"/>
	<path class="st2" d="M218.3,559.7c-7.1,2.5-18.7,5.6-33.3,5.3c-12.8-0.2-23.2-3-29.9-5.3c0-43.2,0-86.3,0-129.5h63.2V559.7z"/>
	<ellipse class="st2" cx="186.7" cy="431.1" rx="31.6" ry="8.3"/>
	<path class="st3" d="M155.1,441.9c6.1,2.5,16.7,6.1,30.3,6.3c15,0.2,26.6-3.7,32.9-6.3"/>
	<path class="st3" d="M155.1,449.3c6.1,2.5,16.7,6.1,30.3,6.3c15,0.2,26.6-3.7,32.9-6.3"/>
	<path class="st3" d="M155.1,456.7c6.1,2.5,16.7,6.1,30.3,6.3c15,0.2,26.6-3.7,32.9-6.3"/>
	<path class="st3" d="M155.1,464.1c6.1,2.5,16.7,6.1,30.3,6.3c15,0.2,26.6-3.7,32.9-6.3"/>
	<path class="st3" d="M155.1,470.4c6.1,2.5,16.7,6.1,30.3,6.3c15,0.2,26.6-3.7,32.9-6.3"/>
	<path class="st3" d="M155.1,477.9c6.1,2.5,16.7,6.1,30.3,6.3c15,0.2,26.6-3.7,32.9-6.3"/>
	<path class="st3" d="M155.1,485.3c6.1,2.5,16.7,6.1,30.3,6.3c15,0.2,26.6-3.7,32.9-6.3"/>
	<path class="st3" d="M155.1,492.7c6.1,2.5,16.7,6.1,30.3,6.3c15,0.2,26.6-3.7,32.9-6.3"/>
	<path class="st3" d="M155.1,499c6.1,2.5,16.7,6.1,30.3,6.3c15,0.2,26.6-3.7,32.9-6.3"/>
	<path class="st3" d="M155.1,506.5c6.1,2.5,16.7,6.1,30.3,6.3c15,0.2,26.6-3.7,32.9-6.3"/>
	<path class="st3" d="M155.1,513.9c6.1,2.5,16.7,6.1,30.3,6.3c15,0.2,26.6-3.7,32.9-6.3"/>
	<path class="st3" d="M155.1,521.3c6.1,2.5,16.7,6.1,30.3,6.3c15,0.2,26.6-3.7,32.9-6.3"/>
	<path class="st3" d="M155.1,527.6c6.1,2.5,16.7,6.1,30.3,6.3c15,0.2,26.6-3.7,32.9-6.3"/>
	<path class="st3" d="M155.1,535c6.1,2.5,16.7,6.1,30.3,6.3c15,0.2,26.6-3.7,32.9-6.3"/>
	<path class="st3" d="M155.1,542.5c6.1,2.5,16.7,6.1,30.3,6.3c15,0.2,26.6-3.7,32.9-6.3"/>
	<path class="st3" d="M155.1,549.9c6.1,2.5,16.7,6.1,30.3,6.3c15,0.2,26.6-3.7,32.9-6.3"/>
	<path class="st4" d="M241.7,560.8c-4.3,1.5-11.4,3.3-20.3,3.1c-7.8-0.1-14.1-1.8-18.3-3.1c0-25.5,0-51,0-76.4h38.6V560.8z"/>
	<ellipse class="st2" cx="222.4" cy="484.9" rx="19.3" ry="4.9"/>
	<path class="st3" d="M203.1,491.3c3.7,1.5,10.2,3.6,18.5,3.7c9.2,0.1,16.3-2.2,20.1-3.7"/>
	<path class="st3" d="M203.1,495.7c3.7,1.5,10.2,3.6,18.5,3.7c9.2,0.1,16.3-2.2,20.1-3.7"/>
	<path class="st3" d="M203.1,500c3.7,1.5,10.2,3.6,18.5,3.7c9.2,0.1,16.3-2.2,20.1-3.7"/>
	<path class="st3" d="M203.1,504.4c3.7,1.5,10.2,3.6,18.5,3.7c9.2,0.1,16.3-2.2,20.1-3.7"/>
	<path class="st3" d="M203.1,508.2c3.7,1.5,10.2,3.6,18.5,3.7c9.2,0.1,16.3-2.2,20.1-3.7"/>
	<path class="st3" d="M203.1,512.5c3.7,1.5,10.2,3.6,18.5,3.7c9.2,0.1,16.3-2.2,20.1-3.7"/>
	<path class="st3" d="M203.1,516.9c3.7,1.5,10.2,3.6,18.5,3.7c9.2,0.1,16.3-2.2,20.1-3.7"/>
	<path class="st3" d="M203.1,521.3c3.7,1.5,10.2,3.6,18.5,3.7c9.2,0.1,16.3-2.2,20.1-3.7"/>
	<path class="st3" d="M203.1,525c3.7,1.5,10.2,3.6,18.5,3.7c9.2,0.1,16.3-2.2,20.1-3.7"/>
	<path class="st3" d="M203.1,529.4c3.7,1.5,10.2,3.6,18.5,3.7c9.2,0.1,16.3-2.2,20.1-3.7"/>
	<path class="st3" d="M203.1,533.8c3.7,1.5,10.2,3.6,18.5,3.7c9.2,0.1,16.3-2.2,20.1-3.7"/>
	<path class="st3" d="M203.1,538.2c3.7,1.5,10.2,3.6,18.5,3.7c9.2,0.1,16.3-2.2,20.1-3.7"/>
	<path class="st3" d="M203.1,541.9c3.7,1.5,10.2,3.6,18.5,3.7c9.2,0.1,16.3-2.2,20.1-3.7"/>
	<path class="st3" d="M203.1,546.3c3.7,1.5,10.2,3.6,18.5,3.7c9.2,0.1,16.3-2.2,20.1-3.7"/>
	<path class="st3" d="M203.1,550.7c3.7,1.5,10.2,3.6,18.5,3.7c9.2,0.1,16.3-2.2,20.1-3.7"/>
	<path class="st3" d="M203.1,555.1c3.7,1.5,10.2,3.6,18.5,3.7c9.2,0.1,16.3-2.2,20.1-3.7"/>
	<path class="st5" d="M283.6,559.2c-5.6,2.2-14.8,5.1-26.3,4.8c-10.2-0.2-18.3-2.7-23.6-4.8c0-39.2,0-78.5,0-117.7h50V559.2z"/>
	<ellipse class="st2" cx="258.6" cy="442.3" rx="25" ry="7.6"/>
	<path class="st3" d="M233.6,452.1c4.8,2.3,13.2,5.6,24,5.8c11.9,0.2,21.1-3.4,26-5.8"/>
	<path class="st3" d="M233.6,458.8c4.8,2.3,13.2,5.6,24,5.8c11.9,0.2,21.1-3.4,26-5.8"/>
	<path class="st3" d="M233.6,465.6c4.8,2.3,13.2,5.6,24,5.8c11.9,0.2,21.1-3.4,26-5.8"/>
	<path class="st3" d="M233.6,472.3c4.8,2.3,13.2,5.6,24,5.8c11.9,0.2,21.1-3.4,26-5.8"/>
	<path class="st3" d="M233.6,478.1c4.8,2.3,13.2,5.6,24,5.8c11.9,0.2,21.1-3.4,26-5.8"/>
	<path class="st3" d="M233.6,484.8c4.8,2.3,13.2,5.6,24,5.8c11.9,0.2,21.1-3.4,26-5.8"/>
	<path class="st3" d="M233.6,491.6c4.8,2.3,13.2,5.6,24,5.8c11.9,0.2,21.1-3.4,26-5.8"/>
	<path class="st3" d="M233.6,498.3c4.8,2.3,13.2,5.6,24,5.8c11.9,0.2,21.1-3.4,26-5.8"/>
	<path class="st3" d="M233.6,504.1c4.8,2.3,13.2,5.6,24,5.8c11.9,0.2,21.1-3.4,26-5.8"/>
	<path class="st3" d="M233.6,510.8c4.8,2.3,13.2,5.6,24,5.8c11.9,0.2,21.1-3.4,26-5.8"/>
	<path class="st3" d="M233.6,517.6c4.8,2.3,13.2,5.6,24,5.8c11.9,0.2,21.1-3.4,26-5.8"/>
	<path class="st3" d="M233.6,524.3c4.8,2.3,13.2,5.6,24,5.8c11.9,0.2,21.1-3.4,26-5.8"/>
	<path class="st3" d="M233.6,530.1c4.8,2.3,13.2,5.6,24,5.8c11.9,0.2,21.1-3.4,26-5.8"/>
	<path class="st3" d="M233.6,536.8c4.8,2.3,13.2,5.6,24,5.8c11.9,0.2,21.1-3.4,26-5.8"/>
	<path class="st3" d="M233.6,543.6c4.8,2.3,13.2,5.6,24,5.8c11.9,0.2,21.1-3.4,26-5.8"/>
	<path class="st3" d="M233.6,550.3c4.8,2.3,13.2,5.6,24,5.8c11.9,0.2,21.1-3.4,26-5.8"/>
	
		<ellipse transform="matrix(0.8765 -0.4814 0.4814 0.8765 -235.2267 129.5047)" class="st6" cx="134.8" cy="523.2" rx="32.6" ry="22"/>
	
		<ellipse transform="matrix(0.8765 -0.4814 0.4814 0.8765 -234.4843 128.6524)" class="st7" cx="133.5" cy="521.3" rx="32.6" ry="22"/>
	<g>
		<g>
			<path class="st6" d="M148.5,502.6c-1.4,1.2-2.7,2.4-4.1,3.6c-0.7,0.6,0.3,1.7,1.1,1.1c1.4-1.2,2.7-2.4,4.1-3.6
				C150.3,503.1,149.2,502,148.5,502.6L148.5,502.6z"/>
		</g>
	</g>
	<g>
		<g>
			<path class="st6" d="M148.8,511.2c-3.3-6.1-13.4-7.1-16.1,0.3c-1.3,3.6,0.6,4.5,2.7,6.7c0.5,0.3,1,0.6,1.5,0.9
				c0.4,2.2,0.9,4.3,1.3,6.5c-0.7,2.1-4.6,4-6.5,4.5c-5.5,1.4-11-1.6-13.1-6.8c-0.4-0.9-1.8-0.5-1.4,0.4c3.3,8.1,13.7,11,20.4,4.9
				c2.5-2.3,4.5-6.1,2.1-9.2c-1-1.2-2.4-1.6-3.5-2.6c-6.8-6.4,6.7-13.4,11.4-5C147.9,512.8,149.2,512.1,148.8,511.2L148.8,511.2z"/>
		</g>
	</g>
	<g>
		<g>
			<path class="st6" d="M119.7,527.6c-1.9,1.3-3.7,2.6-5.6,3.9c-0.8,0.6,0,1.9,0.8,1.3c1.9-1.3,3.7-2.6,5.6-3.9
				C121.2,528.3,120.5,527,119.7,527.6L119.7,527.6z"/>
		</g>
	</g>
	
		<ellipse transform="matrix(0.8926 -0.4508 0.4508 0.8926 -212.0606 193.8071)" class="st6" cx="300.8" cy="542" rx="23.5" ry="15.6"/>
	
		<ellipse transform="matrix(0.8926 -0.4508 0.4508 0.8926 -211.5682 193.2445)" class="st2" cx="299.9" cy="540.7" rx="23.5" ry="15.6"/>
	<g>
		<g>
			<path class="st6" d="M310.6,527.5c-1,0.8-2,1.7-3,2.5c-0.7,0.6,0.3,1.7,1.1,1.1c1-0.8,2-1.7,3-2.5
				C312.4,527.9,311.3,526.9,310.6,527.5L310.6,527.5z"/>
		</g>
	</g>
	<g>
		<g>
			<path class="st6" d="M311.1,533.5c-2.5-4.3-10.1-5.3-12.1,0.2c-0.9,2.4,0.2,3.1,1.6,4.7c1.5,1.7,5.8,0,1.8,5.9
				c-1,1.4-3.1,2.1-4.7,2.4c-3.8,0.6-7.1-1.4-8.6-4.8c-0.4-0.9-1.7-0.1-1.3,0.8c2.5,5.7,9.9,7.6,14.8,3.6c1.7-1.4,3.4-3.9,2.3-6.2
				c-0.4-0.9-1.3-1.2-1.9-1.9c-0.4-0.3-0.8-0.5-1.2-0.7c-0.1-1.5-0.2-3.1-0.3-4.6c1.2-0.5,2.4-1,3.6-1.4c2.2,0,3.8,1,4.8,2.9
				C310.3,535.1,311.6,534.4,311.1,533.5L311.1,533.5z"/>
		</g>
	</g>
	<g>
		<g>
			<path class="st6" d="M289.8,545c-1.3,0.9-2.7,1.8-4,2.8c-0.8,0.5,0,1.8,0.8,1.3c1.3-0.9,2.7-1.8,4-2.8
				C291.3,545.7,290.6,544.4,289.8,545L289.8,545z"/>
		</g>
	</g>
	
		<ellipse transform="matrix(7.082600e-02 -0.9975 0.9975 7.082600e-02 -204.9282 799.4014)" class="st6" cx="326.6" cy="509.7" rx="24.9" ry="19.1"/>
	
		<ellipse transform="matrix(7.082600e-02 -0.9975 0.9975 7.082600e-02 -206.6124 797.3094)" class="st8" cx="324.7" cy="509.6" rx="24.9" ry="19.1"/>
	<g>
		<g>
			<path class="st6" d="M318.8,491.5c0.2,1.4,0.3,2.8,0.5,4.2c0.1,0.9,1.6,1,1.5,0c-0.2-1.4-0.3-2.8-0.5-4.2
				C320.2,490.5,318.7,490.5,318.8,491.5L318.8,491.5z"/>
		</g>
	</g>
	<g>
		<g>
			<path class="st6" d="M325.3,495.4c-5.1-0.8-11.2,3.1-8.6,9c1,2.3,2.9,3.4,5.4,3.1c1-0.1,2.1-0.8,3.1-0.8c5.6-0.1,6.1,4.5,5,7.8
				c-1.6,4.7-7,5.9-11.3,4.8c-0.9-0.2-1.3,1.2-0.4,1.4c6.3,1.6,13.9-1.7,13.7-9c0-2.3-1.1-5.2-3.3-6.3c-1.1-0.6-2.2-0.6-3.4-0.4
				c-0.8,0.1-2.3,1-3.1,0.9c-1.5-1.8-3-3.5-4.5-5.3c1.5-3.2,3.9-4.5,7.1-3.8C325.8,497,326.2,495.5,325.3,495.4L325.3,495.4z"/>
		</g>
	</g>
	<g>
		<g>
			<path class="st6" d="M322.2,520.9c0,1.7,0,3.5,0,5.2c0,1,1.5,1,1.5,0c0-1.7,0-3.5,0-5.2C323.7,520,322.2,520,322.2,520.9
				L322.2,520.9z"/>
		</g>
	</g>
</g>
<g id="coins">
	<ellipse class="st6" cx="41.5" cy="223.4" rx="35.9" ry="39"/>
	<ellipse class="st6" cx="106.7" cy="39.1" rx="19.1" ry="39.1"/>
	<ellipse class="st6" cx="428.9" cy="274.6" rx="25.9" ry="40.7"/>
	<ellipse class="st9" cx="35.9" cy="223.4" rx="35.9" ry="39"/>
	<ellipse class="st9" cx="101.1" cy="39.1" rx="19.1" ry="39.1"/>
	<ellipse class="st9" cx="432.5" cy="275.3" rx="25.9" ry="40.7"/>
	<g>
		<g>
			<path class="st10" d="M33.4,190.9c0,4.1,0,8.2,0,12.4c0,1.9,3,1.9,3,0c0-4.1,0-8.2,0-12.4C36.4,188.9,33.4,188.9,33.4,190.9
				L33.4,190.9z"/>
		</g>
	</g>
	<g>
		<g>
			<path class="st10" d="M48.1,204.3c-7-1.3-15.1-2.1-20.8,3c-4.1,3.7-6.1,10.6-1.2,14.5c6.7,5.3,21.2-0.2,23.9,10
				c1.9,7.4-6.2,11.4-12.3,12c-5.2,0.5-10.5-0.5-14-4.7c-1.2-1.5-3.3,0.6-2.1,2.1c8.1,9.8,34,6.7,31.7-9.2c-1-6.9-8.3-9.4-14.3-10.2
				c-2.7-0.4-5.7-0.4-8.3-1.2c-5.4-1.7-5-7.6-1.7-10.8c4.9-4.8,12.3-3.9,18.4-2.7C49.2,207.6,50,204.7,48.1,204.3L48.1,204.3z"/>
		</g>
	</g>
	<g>
		<g>
			<path class="st10" d="M34.9,246.7c0,2.7,0,5.5,0,8.2c0,1.9,3,1.9,3,0c0-2.7,0-5.5,0-8.2C37.9,244.8,34.9,244.8,34.9,246.7
				L34.9,246.7z"/>
		</g>
	</g>
	<g>
		<g>
			<path class="st10" d="M97.1,7c0,4.1,0,8.2,0,12.4c0,1.9,3,1.9,3,0c0-4.1,0-8.2,0-12.4C100.1,5.1,97.1,5.1,97.1,7L97.1,7z"/>
		</g>
	</g>
	<g>
		<g>
			<path class="st10" d="M106.8,20.5c-4.8-1.4-9.4-1.6-12.8,2.5c-2.7,3.3-4,8.5-2.5,12.6c2.3,6.2,9,3.6,13.3,7.2
				c9.4,8-5.5,25.6-12.3,12.8c-0.9-1.7-3.5-0.2-2.6,1.5c5.6,10.6,18.8,5.5,20.4-5.1c0.8-5-0.9-10.6-5.8-13
				c-4.5-2.2-10.4-0.1-10.6-7.4c-0.2-7.3,5.8-10.2,12.2-8.3C107.9,23.9,108.7,21.1,106.8,20.5L106.8,20.5z"/>
		</g>
	</g>
	<g>
		<g>
			<path class="st10" d="M98.1,62.9c0,2.7,0,5.5,0,8.2c0,1.9,3,1.9,3,0c0-2.7,0-5.5,0-8.2C101.1,61,98.1,61,98.1,62.9L98.1,62.9z"/>
		</g>
	</g>
	<g>
		<g>
			<path class="st10" d="M428.4,244.5c0,4,0,8,0,12.1c0,1.9,3,1.9,3,0c0-4,0-8,0-12.1C431.4,242.6,428.4,242.6,428.4,244.5
				L428.4,244.5z"/>
		</g>
	</g>
	<g>
		<g>
			<path class="st10" d="M444.2,257.6c-7.7-1.3-16.6-2.2-22.9,3.4c-4.5,4-5.7,11.2,0.3,14.4c6.6,3.6,25-0.3,25.2,10.7
				c0.2,7.4-9.6,10-15.3,10.2c-5.1,0.2-10.3-0.8-13.8-4.7c-1.3-1.4-3.4,0.7-2.1,2.1c8.2,9,36.6,7.4,34.1-9c-1.1-7.1-9.5-9.3-15.5-10
				c-2.9-0.3-6-0.3-8.9-1.1c-2.3-0.6-4.9-3.7-4.8-6.2c0.1-1.8,2.1-3.6,3.3-4.6c5.5-4.4,13.2-3.4,19.6-2.4
				C445.3,260.8,446.1,257.9,444.2,257.6L444.2,257.6z"/>
		</g>
	</g>
	<g>
		<g>
			<path class="st10" d="M430.1,299c0,2.7,0,5.4,0,8c0,1.9,3,1.9,3,0c0-2.7,0-5.4,0-8C433.1,297.1,430.1,297.1,430.1,299L430.1,299z
				"/>
		</g>
	</g>
</g>
<g id="character">
	<g id="leg_right">
		<path class="st4" d="M196.8,346.5c-2.1,32.7-1.5,49.3,1.7,49.7c3.5,0.5,10.1-17.9,19.7-55c-4.5-2.8-9-5.5-13.5-8.3
			C202.1,337.4,199.5,341.9,196.8,346.5z"/>
		<g>
			<g>
				<path class="st10" d="M197.6,350.8c-1.4-0.8-2.9-0.2-4.1,0.8c-0.9,0.8-2.5,2.3-1.6,3.6c0.7,1,2.2,0.8,3.1,0.4
					c1.4-0.6,2.5-1.9,3-3.4c0.2-0.5-0.6-0.6-0.7-0.2c-0.5,1.4-2.4,3.7-4.2,3.1c-1.6-0.6,0.2-2.3,0.8-2.9c0.9-0.8,2.1-1.4,3.3-0.8
					C197.6,351.7,198,351,197.6,350.8L197.6,350.8z"/>
			</g>
		</g>
		<g>
			<g>
				<path class="st10" d="M197.6,352c1.1-1.8,2.6-3.8,4.8-4.3c0.7-0.3,1.2,0,1.5,0.8c-0.1,0.2-0.3,0.4-0.4,0.6c-0.4,0.5-1,1-1.5,1.3
					c-1.1,0.7-2.3,1.1-3.5,1.2c-0.5,0.1-0.5,0.8,0,0.8c1.9-0.2,3.6-0.9,5-2.2c0.8-0.7,2.2-2.1,1-3c-1-0.8-2.8-0.2-3.8,0.4
					c-1.6,0.9-2.7,2.5-3.7,4C196.7,352.1,197.3,352.4,197.6,352L197.6,352z"/>
			</g>
		</g>
		<g>
			<g>
				<path class="st10" d="M196.1,359.3c1.1-1.7,3.2-2.4,5.1-2.1c0.5,0.1,0.7-0.7,0.2-0.7c-2.3-0.3-4.7,0.5-6,2.5
					C195.1,359.3,195.8,359.7,196.1,359.3L196.1,359.3z"/>
			</g>
		</g>
		<g>
			<g>
				<path class="st10" d="M195.5,363.2c1.3-1.2,3-1.6,4.7-1.2c0.5,0.1,0.7-0.6,0.2-0.7c-1.9-0.5-3.9,0-5.4,1.4
					C194.6,363,195.2,363.5,195.5,363.2L195.5,363.2z"/>
			</g>
		</g>
		<g>
			<g>
				<path class="st10" d="M195.5,369.4c1-1.3,2.6-1.9,4.2-1.8c0.5,0,0.5-0.7,0-0.8c-1.8-0.1-3.6,0.6-4.8,2
					C194.7,369.3,195.2,369.8,195.5,369.4L195.5,369.4z"/>
			</g>
		</g>
		<g>
			<g>
				<path class="st10" d="M194.9,375.5c1-0.7,2-1.2,3.2-1.4c0.5-0.1,0.5-0.8,0-0.8c-1.3,0.2-2.6,0.6-3.6,1.5
					C194.2,375.1,194.5,375.8,194.9,375.5L194.9,375.5z"/>
			</g>
		</g>
		<g>
			<g>
				<path class="st10" d="M215.7,341c-3.4,10.6-6.4,21.3-8.9,32.1c-0.1,0.5,0.6,0.7,0.7,0.2c2.5-10.8,5.5-21.5,8.9-32.1
					C216.5,340.8,215.8,340.6,215.7,341L215.7,341z"/>
			</g>
		</g>
		<path class="st7" d="M195.5,229.6c-3.9-0.8-9.3-1.9-15.6-3c-9.1-1.7-8.4-1.3-27.4-4.4c-6.9-1.1-13.9-1.4-20.8-2.3
			c-3.1-0.4-6.5-0.9-10.1,0.6c-5.1,2.2-7.1,6.7-7.3,7.2c-0.8,2-1.1,4-0.7,8.1c0.9,8.3,3.3,14.3,3.5,14.6
			c5.4,12.9,12.2,23.3,12.2,23.3c6.2,9.3,12.8,19.3,23.8,32c9.8,11.3,19.2,20.1,26.7,26.7c6.3,5.5,12,9.9,16.6,13.3
			c1.3-0.5,3.4-1.6,5.3-3.7c2.8-3,3.5-6.2,3.8-7.6c-3.8-7.1-7.6-14.3-11.4-21.7c-5.8-11.4-11.2-22.5-16.3-33.5
			c2.7,0.9,6.4,1.9,10.9,2.7c7,1.3,12.4,1.5,17.4,1.7c6.6,0.2,11.6-0.1,21.6-0.7c8.1-0.5,10.8-0.9,12.9-1.2c7.1-1.2,11.6-2,15.3-5.1
			c2.2-1.9,4.1-4.6,5.6-10c1-3.8,6.8-24.8-4.2-37.5C246,216.1,218.3,213.5,195.5,229.6z"/>
		<g>
			<path class="st11" d="M192.6,229.1c-19.6-4.2-39.5-7.3-59.5-9.1c-5.5-0.5-11.7-0.7-15.7,2.8c-3.6,3.2-4.1,8.4-3.7,13.1
				c1,11.9,6.7,23,12.9,33.4c17.8,29.4,41.6,55.5,69.8,76.5"/>
		</g>
		<g>
			<g>
				<path class="st10" d="M167.2,257.4c11.7,26.2,24.3,51.9,37.9,77.2c0.2,0.4,0.9,0,0.6-0.4c-13.6-25.2-26.2-51-37.9-77.2
					C167.7,256.6,167,257,167.2,257.4L167.2,257.4z"/>
			</g>
		</g>
		<g>
			<path class="st11" d="M197.4,345.1c3.7-1.4,6.3-4.8,6.6-8.6"/>
		</g>
		<g>
			<path class="st11" d="M176.4,278.3c15.9,6.6,34,5.7,51.3,4.7c10.3-0.6,21.3-1.4,29.6-7.2"/>
		</g>
	</g>
	<g id="torso">
		<path class="st12" d="M152.4,119.6c2.6-1.5,6.3-3.5,10.8-5.6c1.9-0.9,10.8-5,23.7-8.6c6.9-1.9,16.1-4,27-5.3
			c16.1-1.9,29.5-1.2,38.2-0.4c16.4,1.6,30.1,5.2,40.6,8.8c0.4,5.8,0.7,11.6,1.1,17.4c-1.2,3.4-3,8.7-5.4,15.2
			c-9.5,26.2-13.9,35.3-19.7,52.5c-2.4,7-5.7,17.4-8.9,30.4c-2,1.4-4.8,3.2-8.4,4.8c-5.2,2.4-9.6,3.4-12.7,4
			c-8.7,1.9-15.7,1.8-17.1,1.8c-13-0.2-23.4-4.4-29.5-7.4c-3.5-8.3-6.9-16.7-10.2-25.2C170.8,173.8,161.1,146.3,152.4,119.6z"/>
		<g>
			<path class="st11" d="M154,118.5c41-21.7,92.2-25.7,136.4-10.6"/>
		</g>
		<g>
			<g>
				<path class="st6" d="M158.8,141.6c10.3,28.8,21.3,57.4,33,85.7c0.2,0.4,0.9,0.2,0.7-0.2c-11.7-28.3-22.7-56.9-33-85.7
					C159.4,140.9,158.7,141.1,158.8,141.6L158.8,141.6z"/>
			</g>
		</g>
		<g>
			<path class="st11" d="M195.5,229.6c20.1,8,44.2,6.4,62.9-4.2"/>
		</g>
		<g>
			<g>
				<path class="st6" d="M293.5,125.8c-11,32.8-26,64.3-34,98.1c-0.1,0.5,0.6,0.7,0.7,0.2c7.9-33.8,22.9-65.3,34-98.1
					C294.3,125.6,293.6,125.4,293.5,125.8L293.5,125.8z"/>
			</g>
		</g>
	</g>
	<g id="head">
		<path class="st8" d="M233.8,94.5c-0.3-0.8-1.2-2.9-8.3-7.4c-2.3-1.5-4.4-2.6-5.8-3.3c-1.2,0.8-3.1,1.8-5.4,2.8
			c-5.3,2.4-8.9,4-13.1,3.5c-3.4-0.4-7.6-2.3-10-5.9c-4.3-6.3-0.5-13.7,0.1-14.6c3.5-6.5,10.5-8.2,12.1-8.6c9.9-2.5,17.9,3.2,19,3.9
			c-0.1-1.5-0.2-5.2,2.1-8.9c0.5-0.7,3.9-6,9-6.1c1.3,0,2.6,0.5,5.1,1.5c5.3,2.1,6.2,3.9,9.1,3.9c0.6,0,0.6-0.1,4.5-1.3
			c0,0,2.7-0.8,6.5-1.9c3.7-1,9-1.4,14-0.6c9.9,1.7,15.8,7.9,16.7,8.8c1.7,1.9,6,6.9,6.9,14.3c1.8,13.7-9,23.6-11.3,25.7
			c-2.7,2.5-8.8,7.3-18.1,9.2c-3,0.6-13.1,2.5-23.5-2.5c-4.6-2.2-7.6-5-9.5-7C234.5,97.4,234.1,95.5,233.8,94.5z"/>
		<path class="st4" d="M232.5,72.5c1.1,1.1,2.3,2.5,3.3,4.3c2.4,4.1,3,8,3.1,10.4c0.5-0.9,1.9-3.7,1-7.2
			C238.5,74.7,232.9,72.7,232.5,72.5z"/>
		<path class="st13" d="M201.8,90.1c-0.2,1.4-0.4,3.4-0.1,5.7c0.3,2.8,0.8,7.2,4.3,10.9c3.9,4,9.2,4.6,10.9,4.7
			c0.4,0.5,0.9,1.3,0.7,2.1c-0.4,1.4-2.6,1.4-4.1,3.2c-1,1.2-1.5,2.9-1.1,4.4c0.9,3.1,6.1,3.8,6.7,3.9c4.6,0.6,11.4-1.5,12.7-6.7
			c1-4.1-2.1-7.7-2.6-8.3c-0.1-1.1-0.2-2.1-0.4-3.2c1-0.9,2.4-2.2,3.5-4c1.8-2.9,2.3-5.6,2.5-7.3c-1.4-1.6-3-3.3-4.9-5
			c-3.6-3.2-7.2-5.4-10.2-7c-1.5,1-3.3,2.1-5.4,3.1C209.5,88.8,205.1,89.8,201.8,90.1z"/>
		<ellipse class="st6" cx="219.4" cy="91.7" rx="1.2" ry="1.9"/>
		<g>
			<path class="st11" d="M202.1,90.4c-1,4.6-0.3,9.5,2,13.7c0.9,1.6,2.1,3.1,3.6,4.2c1.1,0.8,2.5,1.4,3.8,1.9
				c5.1,1.6,10.9,0.9,15.4-1.9c4.5-2.8,7.4-7.6,7.8-12.6"/>
		</g>
		<g>
			<g>
				<path class="st6" d="M216.5,111.5c0.4,1.3,0.9,2.7,1.3,4c0.1,0.5,0.9,0.3,0.7-0.2c-0.4-1.3-0.9-2.7-1.3-4
					C217,110.9,216.3,111.1,216.5,111.5L216.5,111.5z"/>
			</g>
		</g>
		<g>
			<path class="st11" d="M217.2,113.8c-1.4,0.8-2.8,1.7-3.8,2.9c-1,1.2-1.6,2.9-1.1,4.4c0.7,2,3,3.1,5.2,3.2"/>
		</g>
		<g>
			<g>
				<path class="st6" d="M228.3,107.4c0.2,0.9,0.3,1.9,0.5,2.8c0.1,0.5,0.8,0.3,0.7-0.2c-0.2-0.9-0.3-1.9-0.5-2.8
					C228.9,106.7,228.2,106.9,228.3,107.4L228.3,107.4z"/>
			</g>
		</g>
		<g>
			<g>
				<path class="st6" d="M211.7,90.6c-1.4,3.6-3,11.2,2.4,12.3c0.5,0.1,0.7-0.6,0.2-0.7c-4.9-0.9-3.2-8.2-1.9-11.4
					C212.6,90.4,211.9,90.2,211.7,90.6L211.7,90.6z"/>
			</g>
		</g>
		<g>
			<path class="st11" d="M202.4,90.1c-4,0.2-8-1.7-10.5-4.7s-3.3-7-2.7-10.8c1.2-6.9,7.6-12.5,14.9-13.9c7.3-1.3,15.1,1.3,20.4,6.3
				c1.9,1.8,3.5,3.8,4.9,5.9c4.5,6.8,6.9,15,5.5,22.9"/>
		</g>
		<g>
			<path class="st11" d="M202.5,89.8c2.6,0.2,5-0.8,7.4-1.7c3.3-1.3,6.6-2.8,9.8-4.3"/>
		</g>
		<g>
			<path class="st11" d="M219.6,83.6c1.3,0.3,2.4,1.1,3.5,1.9c4.2,3,8.5,6.1,11.6,10.1"/>
		</g>
		<g>
			<path class="st11" d="M222.3,65c-0.5-4.6,1.5-9.3,5.1-12.3c1.7-1.4,3.7-2.5,6-2.7c2.2-0.2,4.6,0.6,5.9,2.4
				c0.6,0.8,0.9,1.7,1.6,2.4c2,2.1,5.6,1.2,8.4,0.2c5.2-1.9,10.6-3.6,16.2-3.9c10.6-0.6,21.4,4.7,26.9,13.3
				c5.5,8.6,5.4,20.1-0.4,28.5c-1.5,2.2-3.4,4.2-5.4,6c-7.2,6.5-16.5,11.1-26.4,11.7c-9.9,0.6-20.3-3.3-26.1-11"/>
		</g>
	</g>
	<g id="hand_right">
		<path class="st13" d="M203.7,264c-0.9,0.9-2.2,2.4-2.7,4.6c-0.5,2.1-0.1,3.7,0.4,5.5c0.5,2,0.9,3.6,2.1,5c2,2.4,5.1,2.9,9.9,3.6
			c3.6,0.5,5.7,0.8,8.2-0.1c0.8-0.3,4-1.5,4.8-4.2c0.3-0.9,0.1-1.9-0.3-4c-0.4-2.3-0.9-4.6-2.6-7c-0.6-0.8-1.2-1.5-1.6-1.9
			c0.4-0.3,1.9-1.6,2.1-3.8c0.1-1.8-0.8-4.1-2.6-4.8c-1.8-0.8-3.8,0.3-6.5,1.8c-1.7,0.9-2.9,1.9-3.7,2.6c-1.6-1.8-4.1-2.1-5.8-1
			C204.2,261.1,203.6,262.5,203.7,264z"/>
		<path class="st12" d="M154,118.5c-1.6,0.9-3.2,2.3-3.4,2.4c-5,4.3-6.6,9.5-7.2,11.8c-0.9,3-1.6,7.5,0.2,17.2
			c2,10.7,5.5,18.5,6.1,20.1c9.4,21.2,17.8,37.1,17.8,37.1c6.8,12.9,11.2,21,19.9,37.2c5.4,10,9.8,18.2,12.6,23.5
			c0.7-1.1,1.8-2.5,3.6-3.9c2.9-2.2,6-2.8,7.5-3c-0.9-3.7-2.3-9.2-4.1-16c-3.9-14.4-5.3-18.3-7.5-26.7c-3-11.3-4.5-19.4-7-33
			c-3.1-16.9-4.7-25.4-5.1-32c-0.9-16.6,1.7-19.8-2.3-25.6C178.5,118.2,162.1,114.1,154,118.5z"/>
		<g>
			<path class="st11" d="M152.4,119.6c-5.6,3.5-8.7,9.7-9.6,15.9c-0.9,6.2,0.2,12.6,1.8,18.7c5.1,19.4,14.7,37.4,24.2,55.2
				c10.4,19.5,20.9,38.9,31.3,58.4"/>
		</g>
		<g>
			<g>
				<path class="st10" d="M186.1,144.3c4.6,38.8,12.8,77.1,24.4,114.5c0.1,0.5,0.9,0.3,0.7-0.2c-11.6-37.3-19.7-75.5-24.3-114.3
					C186.8,143.9,186,143.9,186.1,144.3L186.1,144.3z"/>
			</g>
		</g>
		<g>
			<path class="st11" d="M201.1,268.5c0.9-4.1,5-7.4,9.5-7.5"/>
		</g>
		<g>
			<path class="st11" d="M212.5,260.8c1.9-1.9,4.3-3.4,6.8-4.5c0.5-0.2,1-0.4,1.5-0.3c0.5,0.1,0.9,0.4,1.3,0.7
				c1.5,1.5,2.3,3.7,1.9,5.7"/>
		</g>
		<g>
			<path class="st11" d="M201.9,269.8c0.4,1.8-0.7,3.6-0.6,5.4c0.1,1.8,1.4,3.3,2.8,4.4c2.4,1.8,5.4,2.6,8.4,3c3,0.3,6,0.2,9.1,0"/>
		</g>
		<g>
			<g>
				<path class="st6" d="M208.8,277.6c4.5,1,8.9,2.1,13.3,3.2c0.5,0.1,0.7-0.6,0.2-0.7c-4.4-1.2-8.9-2.3-13.3-3.2
					C208.5,276.8,208.3,277.5,208.8,277.6L208.8,277.6z"/>
			</g>
		</g>
		<g>
			<g>
				<path class="st6" d="M212.5,271.8c3.6,2,7,4.3,10,7.2c0.4,0.3,0.9-0.2,0.5-0.5c-3.1-2.9-6.4-5.3-10.2-7.3
					C212.5,270.9,212.1,271.5,212.5,271.8L212.5,271.8z"/>
			</g>
		</g>
		<g>
			<g>
				<path class="st6" d="M216.8,269.4c3.2,1.9,5.7,4.6,7.4,7.9c0.2,0.4,0.9,0,0.6-0.4c-1.8-3.4-4.4-6.2-7.7-8.1
					C216.7,268.5,216.4,269.1,216.8,269.4L216.8,269.4z"/>
			</g>
		</g>
		<g>
			<g>
				<path class="st6" d="M219.1,264c4.6,2.4,6.3,7,6.9,11.9c0.1,0.5,0.8,0.5,0.8,0c-0.6-5.1-2.4-10-7.3-12.5
					C219,263.2,218.6,263.8,219.1,264L219.1,264z"/>
			</g>
		</g>
	</g>
	<g id="hand_left">
		<path class="st12" d="M292.8,108.5c-4.3-0.9-8.2,1.7-10.7,3.3c-10.6,7-13.1,19.3-13.9,24.2c-3.5,14.5-6.9,29.5-10,45
			c-5.6,27.7-10,54.3-13.5,79.8c1-0.1,2.9-0.3,5.2,0.5c2.9,1,4.4,2.9,5,3.6c2.2-4.5,5.2-10.6,8.6-18c4.6-9.9,12-25.9,20-47.1
			c8.7-23.1,6.5-21.4,14.7-44.7c0,0,2.8-7.8,4.7-20.8c0.9-5.7,1-8.6,0.2-12.1C302.8,121,300.3,110.1,292.8,108.5z"/>
		<path class="st13" d="M245.5,259.2c-3.2,0.2-3.4,0-5.5,0.2c-3.1,0.3-4.7,0.5-5.9,1.5c-1.5,1.3-1.8,3.1-2.1,4.3
			c-0.3,1.5-0.2,2.9,0,3.7c-1.1,1.1-2.9,3-3.9,5.9c-0.4,1.3-0.9,2.6-0.7,4.1c0.5,3.4,3.8,6.6,7.6,7.3c3.2,0.6,5.8-0.7,8.2-1.9
			c5.4-2.7,8-7.1,9.1-9.1c1.1-2.1,2.3-4.2,2.4-7.2c0.1-3.3-1.2-8.1-4.2-9.1C249.7,258.7,249.7,259,245.5,259.2z"/>
		<g>
			<path class="st11" d="M292.8,108.5c5.3,3,9.1,8.1,10.4,13.8c1.1,5.1,0.2,10.4-0.8,15.6c-9,43.8-27.8,85.2-46.5,126.1"/>
		</g>
		<g>
			<g>
				<path class="st10" d="M267.9,135.9c-9.8,40.7-17.6,81.9-23.3,123.5c-0.1,0.5,0.7,0.7,0.7,0.2c5.7-41.5,13.4-82.7,23.3-123.5
					C268.7,135.6,268,135.4,267.9,135.9L267.9,135.9z"/>
			</g>
		</g>
		<g>
			<path class="st11" d="M244.8,260.8c3.8-0.7,8,1,10.2,4.1"/>
		</g>
		<g>
			<path class="st11" d="M242.5,259.4c-2-0.1-4,0.1-6,0.6c-1.1,0.3-2.2,0.6-3,1.4c-1.3,1.2-1.5,3.2-1.5,4.9"/>
		</g>
		<g>
			<g>
				<path class="st6" d="M236.3,265.5c-4.4,2.2-7.7,5.9-8.9,10.7c-0.1,0.5,0.6,0.7,0.7,0.2c1.2-4.6,4.4-8.2,8.6-10.2
					C237.1,265.9,236.7,265.2,236.3,265.5L236.3,265.5z"/>
			</g>
		</g>
		<g>
			<g>
				<path class="st6" d="M227.6,278.5c4.3-1,8-3.5,10.4-7.2c0.3-0.4-0.4-0.8-0.6-0.4c-2.3,3.5-5.9,5.9-10,6.8
					C227,277.9,227.2,278.6,227.6,278.5L227.6,278.5z"/>
			</g>
		</g>
		<g>
			<g>
				<path class="st6" d="M228.4,281.2c5.3,0,9.4-3.4,13.1-6.8c0.4-0.3-0.2-0.9-0.5-0.5c-3.6,3.3-7.4,6.6-12.5,6.6
					C228,280.5,228,281.2,228.4,281.2L228.4,281.2z"/>
			</g>
		</g>
		<g>
			<g>
				<path class="st6" d="M230.3,282.8c4.4,2.1,10.3-2.2,14.1-4c0.4-0.2,0.1-0.9-0.4-0.6c-3.5,1.7-9.4,5.9-13.4,4
					C230.3,282,229.9,282.6,230.3,282.8L230.3,282.8z"/>
			</g>
		</g>
		<g>
			<path class="st11" d="M233.5,285.7c2.3,1.3,5.2,0.7,7.7-0.3c8.1-3.4,13.8-11.6,13.8-19.9"/>
		</g>
	</g>
	<g id="leg_left">
		<path class="st7" d="M275.2,214.8c-0.7,0.6-3.2,2.7-6.7,7.8c-5.2,7.5-7.6,14.2-8.7,17c-4.2,11.8-6.1,22.2-7.1,28.3
			c-0.8,4.9-3.4,21.2-4.9,50.1c-0.5,8.9-0.7,16.3-0.8,21.1c0.9,1.1,3,3.3,6.6,4.5c6.1,2,11.5-0.8,12.3-1.2
			c2.3-4.7,5.6-11.8,9.3-20.5c11.7-27.1,11.2-31.5,22.9-62.9c0,0,1.2-3.3,6.3-23.4c0.5-1.8,1.5-6,1.1-11.4
			c-0.3-4.2-0.6-8.2-3.7-11.6c-3.7-4-9.1-4.4-10.2-4.5C284,207.6,278.1,212.4,275.2,214.8z"/>
		<path class="st4" d="M247.1,339.3c-1.1,4.4-2.3,8.9-3.4,13.3c14.7,37.5,21.6,47.1,24.8,46.4c3.4-0.8,4.8-13.1-1.2-57.2
			c-0.8,0.5-5.4,3.6-11.5,2.5C250.7,343.3,247.9,340.2,247.1,339.3z"/>
		<g>
			<g>
				<path class="st10" d="M262.6,348.9c-0.5-1.7-2.3-2.9-4.1-2.6c-1.8,0.3-3.3,2.1-3,4c0.3,1.7,2.1,2.9,3.8,2.8
					c2.2-0.1,3.6-2,3.8-4.1c0-0.5-0.7-0.5-0.8,0c-0.2,1.7-1.4,3.4-3.2,3.3c-1.3,0-2.6-0.9-2.8-2.2c-0.7-3.4,4.6-4.2,5.6-1.1
					C262,349.6,262.7,349.4,262.6,348.9L262.6,348.9z"/>
			</g>
		</g>
		<g>
			<g>
				<path class="st10" d="M263.1,349.6c0.5-2.2,2.8-4.6,5.1-2.9c1.3,0.9,0.8,2.5-0.5,3.2c-1.4,0.8-3,0.3-4.3-0.3
					c-0.4-0.2-0.8,0.5-0.4,0.6c1.7,0.7,3.8,1.2,5.4,0.1c1.2-0.8,1.8-2.4,0.9-3.7c-0.8-1.2-2.5-1.6-3.8-1.1c-1.7,0.5-2.7,2.2-3.1,3.8
					C262.3,349.8,263,350,263.1,349.6L263.1,349.6z"/>
			</g>
		</g>
		<g>
			<g>
				<path class="st10" d="M261.2,355.2c2-1,4.2-1.4,6.5-1.1c0.5,0.1,0.5-0.7,0-0.8c-2.4-0.3-4.7,0.2-6.9,1.2
					C260.4,354.8,260.8,355.5,261.2,355.2L261.2,355.2z"/>
			</g>
		</g>
		<g>
			<g>
				<path class="st10" d="M262.4,359.9c2.2-0.7,4.4-1,6.7-0.8c0.5,0,0.5-0.7,0-0.8c-2.4-0.2-4.7,0.1-6.9,0.9
					C261.8,359.4,262,360.1,262.4,359.9L262.4,359.9z"/>
			</g>
		</g>
		<g>
			<g>
				<path class="st10" d="M263.6,364c1.6-1.1,3.4-1.5,5.3-1.3c0.5,0,0.5-0.7,0-0.8c-2-0.2-4,0.3-5.7,1.4
					C262.8,363.6,263.2,364.2,263.6,364L263.6,364z"/>
			</g>
		</g>
		<g>
			<g>
				<path class="st10" d="M264.4,369.4c1.8-0.9,3.7-1.5,5.7-1.6c0.5,0,0.5-0.8,0-0.8c-2.1,0.2-4.2,0.7-6.1,1.7
					C263.6,368.9,263.9,369.6,264.4,369.4L264.4,369.4z"/>
			</g>
		</g>
		<g>
			<g>
				<path class="st10" d="M265.1,375.7c1.6-0.8,3.3-1,5.1-0.7c0.5,0.1,0.7-0.6,0.2-0.7c-2-0.3-3.9-0.1-5.7,0.8
					C264.3,375.3,264.7,375.9,265.1,375.7L265.1,375.7z"/>
			</g>
		</g>
		<g>
			<g>
				<path class="st10" d="M244.8,349.9c5.2,13.2,10.9,26.1,17.2,38.8c0.2,0.4,0.9,0.1,0.6-0.4c-6.3-12.6-12-25.5-17.1-38.7
					C245.3,349.2,244.6,349.4,244.8,349.9L244.8,349.9z"/>
			</g>
		</g>
		<g>
			<path class="st11" d="M247.1,339.3c0.9-27.8,1.8-55.8,8-83.1c2.9-12.7,7-25.4,15.1-35.9c3.7-4.8,8.4-9.2,14.4-11.2
				c6-2,13.3-0.9,17.4,3.6c3.4,3.8,3.9,9.2,3.7,14.2c-0.5,8.8-2.9,17.5-5.5,26c-9.1,29.9-20.1,59.2-32.9,87.9"/>
		</g>
		<g>
			<path class="st11" d="M249.4,341.2c1.9,2.1,5,3.1,8,3.1s5.9-0.8,8.6-1.8"/>
		</g>
	</g>
</g>
<g id="plant">
	<path class="st6" d="M72.8,551.6c-12,0-23.9,0-35.9,0c-3.7-23.5-7.4-47-11.1-70.6H82C78.9,504.5,75.8,528,72.8,551.6z"/>
	<ellipse class="st2" cx="53.9" cy="481.8" rx="28.1" ry="6.6"/>
	<g>
		<g>
			<path class="st8" d="M51.2,416c-6.9,8.6-6.7,18.5-2.7,28.4c2.3,5.6,5.2,11,6.1,17.1c1.1,7.3-0.5,14.6-4.1,21
				c-1,1.7,1.6,3.2,2.6,1.5c5.3-9.3,6.3-20,2.6-30.1c-4.4-12.1-12-23.8-2.4-35.8C54.5,416.6,52.4,414.4,51.2,416L51.2,416z"/>
		</g>
	</g>
	<g>
		<g>
			<path class="st8" d="M30.5,435.4c-3,6.6,0,13.1,5.1,17.7c3.3,2.9,7.1,5.1,10.4,8c4.8,4.3,7,9.9,6.8,16.3c-0.1,1.9,2.9,1.9,3,0
				c0.2-7.2-2.4-13.6-7.7-18.4c-6.2-5.6-19.9-11.6-15.1-22.1C33.9,435.2,31.3,433.6,30.5,435.4L30.5,435.4z"/>
		</g>
	</g>
	<g>
		<g>
			<path class="st8" d="M66,404.3c4.7,8.1-3.7,17.2-8.4,23.2c-3.7,4.7-8.2,10.2-7.6,16.5c0.2,1.9,3.2,1.9,3,0
				c-0.8-8.8,9.2-16.5,13.5-23.5c3.3-5.4,5.5-11.9,2.1-17.8C67.7,401.1,65.1,402.6,66,404.3L66,404.3z"/>
		</g>
	</g>
	<path class="st8" d="M31.3,444.6c-1.9-2.2-4.4-5.7-5.7-10.4c-3.5-12.6,4-23.4,5.2-25.1c1.4,2.6,2.7,5.9,3.5,9.9
		C36.8,430.5,33.3,440.2,31.3,444.6z"/>
	<path class="st8" d="M49.4,462.4c-0.9,0.6-6.5,4.6-13.9,2.9c-8.7-1.9-12-9.9-12.3-10.6c2.6-0.4,6.3-0.6,10.6,0.2
		C41.5,456.4,46.8,460.2,49.4,462.4z"/>
	<path class="st8" d="M56.5,464.4c-0.3-1.9-0.8-6.4,1.5-11.2c3.8-8.1,12-10.3,13.2-10.6c0.2,2.1,0.2,6-1.7,10.2
		C65.9,461.1,58,463.9,56.5,464.4z"/>
	<path class="st8" d="M51.6,447.7c-2.2-1-5.5-3-8.3-6.7c-6.4-8.6-3.8-18.9-3.3-20.4c2,2.5,4.2,5.8,6.1,9.7
		C49.4,436.9,50.9,443.1,51.6,447.7z"/>
	<path class="st8" d="M50.9,421.1c-1.2-1.6-3-4.7-3.3-8.7c-0.9-9.6,7-16.1,7.8-16.7c0.8,2.3,1.8,5.9,1.5,10.4
		C56.4,413.8,52.6,419.1,50.9,421.1z"/>
	<path class="st8" d="M58.5,430.2c0.1-0.4,2.8-6.9,9.7-8.2c5.6-1,9.8,2.3,10.4,2.8c-1.2,1.3-3,3.1-5.8,4.5
		C66.5,432.4,60.3,430.8,58.5,430.2z"/>
	<path class="st8" d="M68.3,413.1c-1.3-1.3-4.7-5.2-5.6-11.2c-1.3-8.4,3.4-14.5,4.3-15.6c1.4,1.8,3.5,4.8,4.5,8.9
		C73.5,404.1,69.3,411.4,68.3,413.1z"/>
</g>
</svg>
