<?xml version="1.0" standalone="no"?><svg xmlns="http://www.w3.org/2000/svg" viewBox="0 0 1440 320"><path fill="#0099ff" fill-opacity="1" d="M0,224L20,213.3C40,203,80,181,120,154.7C160,128,200,96,240,101.3C280,107,320,149,360,138.7C400,128,440,64,480,48C520,32,560,64,600,112C640,160,680,224,720,256C760,288,800,288,840,256C880,224,920,160,960,144C1000,128,1040,160,1080,154.7C1120,149,1160,107,1200,80C1240,53,1280,43,1320,64C1360,85,1400,139,1420,165.3L1440,192L1440,320L1420,320C1400,320,1360,320,1320,320C1280,320,1240,320,1200,320C1160,320,1120,320,1080,320C1040,320,1000,320,960,320C920,320,880,320,840,320C800,320,760,320,720,320C680,320,640,320,600,320C560,320,520,320,480,320C440,320,400,320,360,320C320,320,280,320,240,320C200,320,160,320,120,320C80,320,40,320,20,320L0,320Z"></path></svg>