<?xml version="1.0" standalone="no"?><svg xmlns="http://www.w3.org/2000/svg" viewBox="0 0 1440 320"><path fill="#0099ff" fill-opacity="1" d="M0,128L24,160C48,192,96,256,144,272C192,288,240,256,288,250.7C336,245,384,267,432,272C480,277,528,267,576,229.3C624,192,672,128,720,122.7C768,117,816,171,864,170.7C912,171,960,117,1008,128C1056,139,1104,213,1152,256C1200,299,1248,309,1296,309.3C1344,309,1392,299,1416,293.3L1440,288L1440,0L1416,0C1392,0,1344,0,1296,0C1248,0,1200,0,1152,0C1104,0,1056,0,1008,0C960,0,912,0,864,0C816,0,768,0,720,0C672,0,624,0,576,0C528,0,480,0,432,0C384,0,336,0,288,0C240,0,192,0,144,0C96,0,48,0,24,0L0,0Z"></path></svg>